<svg xmlns="http://www.w3.org/2000/svg" viewBox="0 0 75.325 64"><defs><style>.cls-1{fill:#fff;}</style></defs><g id="Ebene_2" data-name="Ebene 2"><g id="Ebene_1-2" data-name="Ebene 1"><g id="Ebene_2-2" data-name="Ebene 2"><g id="Ebene_1-2-2" data-name="Ebene 1-2"><path class="cls-1" d="M1.8,1.6C-.6,3.9-.6,48.1,1.8,50.4,3,51.7,5.9,52,17.3,52H31.2v5c0,4.7-.2,5-2.5,5-1.4,0-2.5.4-2.5,1s4.5,1,11.5,1,11.5-.4,11.5-1-1.1-1-2.5-1c-2.3,0-2.5-.3-2.5-5V52H58.1c13.3,0,14.1-.1,15.5-2.2,2.3-3.3,2.3-44.3,0-47.6L72.1,0H37.7C7.8,0,3.1.2,1.8,1.6ZM72.7,26V49.5H2.7L2.4,27c-.1-12.3,0-23,.3-23.7C3,2.2,10.3,2,37.9,2.2l34.8.3ZM43.2,57v5h-11V52h11Z"/><path class="cls-1" d="M37.2,24.9c-2.8,7.2-5,13.6-4.8,14.2s2.8-5,5.8-12.5c2.9-7.5,5.1-13.8,4.8-14.1S40.1,17.8,37.2,24.9Z"/><path class="cls-1" d="M16.5,21.3c-4,2.3-7.3,4.4-7.3,4.8,0,.8,16.1,9.2,16.6,8.6.3-.3-2.6-2.2-6.5-4.4-3.9-2.1-7.1-4-7.1-4.3s3.2-2.2,7-4.3c3.9-2.1,7-4,7-4.3C26.2,16.3,23.1,17.5,16.5,21.3Z"/><path class="cls-1" d="M49.2,17.4c0,.3,3.1,2.2,7,4.3,3.8,2.1,7,4,7,4.3s-3.2,2.2-7.1,4.3-6.9,4.1-6.6,4.4c.6.5,16.7-7.8,16.7-8.7,0-.6-15.4-9-16.4-9C49.5,17,49.2,17.2,49.2,17.4Z"/></g></g></g></g></svg>