<?xml version="1.0" standalone="no"?>
<!DOCTYPE svg PUBLIC "-//W3C//DTD SVG 20010904//EN"
 "http://www.w3.org/TR/2001/REC-SVG-20010904/DTD/svg10.dtd">
<svg version="1.0" xmlns="http://www.w3.org/2000/svg"
 width="200.000000pt" height="200.000000pt" viewBox="0 0 200.000000 200.000000"
 preserveAspectRatio="xMidYMid meet">

<g transform="translate(0.000000,200.000000) scale(0.100000,-0.100000)"
fill="#000000" stroke="none">
<path d="M646 1554 c-24 -23 -24 -465 0 -488 12 -13 41 -16 155 -16 l139 0 0
-50 c0 -47 -2 -50 -25 -50 -14 0 -25 -4 -25 -10 0 -6 45 -10 115 -10 70 0 115
4 115 10 0 6 -11 10 -25 10 -23 0 -25 3 -25 50 l0 50 139 0 c133 0 141 1 155
22 23 33 23 443 0 476 l-15 22 -344 0 c-299 0 -346 -2 -359 -16z m709 -244 l0
-235 -350 0 -350 0 -3 225 c-1 123 0 230 3 237 3 11 76 13 352 11 l348 -3 0
-235z m-295 -310 l0 -50 -55 0 -55 0 0 50 0 50 55 0 55 0 0 -50z"/>
<path d="M1000 1321 c-28 -72 -50 -136 -48 -142 2 -6 28 50 58 125 29 75 51
138 48 141 -3 3 -29 -53 -58 -124z"/>
<path d="M793 1357 c-40 -23 -73 -44 -73 -48 0 -8 161 -92 166 -86 3 3 -26 22
-65 44 -39 21 -71 40 -71 43 0 3 32 22 70 43 39 21 70 40 70 43 0 11 -31 -1
-97 -39z"/>
<path d="M1120 1396 c0 -3 31 -22 70 -43 38 -21 70 -40 70 -43 0 -3 -32 -22
-71 -43 -39 -21 -69 -41 -66 -44 6 -5 167 78 167 87 0 6 -154 90 -164 90 -3 0
-6 -2 -6 -4z"/>
<path d="M410 820 c0 -5 9 -10 20 -10 19 0 20 -7 20 -139 0 -117 2 -140 16
-145 23 -9 34 -7 34 4 0 6 -7 10 -15 10 -13 0 -15 23 -15 145 l0 145 -30 0
c-16 0 -30 -4 -30 -10z"/>
<path d="M1203 758 c2 -13 11 -39 20 -58 14 -32 13 -39 -6 -88 -11 -29 -24
-49 -28 -45 -4 4 -26 51 -47 103 -22 52 -45 96 -52 98 -7 3 -11 0 -9 -5 32
-82 105 -243 110 -243 3 0 18 26 32 58 l25 57 26 -57 c14 -32 28 -58 31 -58 4
0 17 24 29 53 65 145 84 197 77 202 -5 3 -28 -41 -51 -98 -24 -56 -46 -106
-50 -110 -4 -5 -17 16 -29 46 l-22 53 21 48 c23 55 23 56 11 56 -5 0 -15 -16
-22 -35 -7 -19 -16 -35 -20 -35 -4 0 -14 18 -23 40 -17 43 -31 54 -23 18z"/>
<path d="M123 756 c15 -11 17 -31 17 -144 0 -123 -1 -132 -22 -146 -30 -21
-15 -33 17 -12 25 16 25 18 25 156 0 115 3 140 14 140 8 0 18 5 21 10 4 6 -12
10 -42 10 -42 -1 -46 -2 -30 -14z"/>
<path d="M550 750 c0 -5 5 -10 10 -10 6 0 10 5 10 10 0 6 -4 10 -10 10 -5 0
-10 -4 -10 -10z"/>
<path d="M216 671 c-3 -5 3 -11 14 -14 17 -4 20 -14 20 -59 0 -30 5 -59 12
-66 16 -16 50 -15 73 2 16 11 21 11 33 0 16 -16 42 -19 42 -4 0 6 -7 10 -15
10 -12 0 -15 14 -15 64 0 36 -4 68 -10 71 -6 4 -10 -12 -10 -42 0 -61 -21 -93
-61 -93 -29 0 -29 1 -29 54 0 36 -5 60 -16 70 -17 18 -30 20 -38 7z"/>
<path d="M515 671 c-3 -7 2 -11 14 -11 19 0 21 -6 21 -70 0 -42 4 -70 10 -70
7 0 10 29 8 78 -3 70 -5 77 -25 80 -11 2 -24 -2 -28 -7z"/>
<path d="M646 659 c-20 -16 -26 -29 -26 -58 0 -70 71 -105 121 -60 21 18 21
20 4 13 -64 -23 -105 -12 -105 27 0 17 8 19 60 19 53 0 60 2 60 20 0 27 -35
60 -64 60 -13 0 -35 -9 -50 -21z m82 -11 c26 -26 13 -38 -38 -38 -54 0 -55 1
-40 31 12 22 59 26 78 7z"/>
<path d="M785 670 c-3 -5 3 -10 14 -10 19 0 21 -6 21 -70 0 -40 4 -70 10 -70
6 0 10 24 10 53 0 61 22 91 62 85 21 -3 23 -9 26 -65 2 -52 6 -63 23 -68 12
-4 26 -2 32 4 8 8 5 11 -11 11 -20 0 -22 5 -22 60 0 55 -2 61 -26 72 -21 10
-31 9 -54 -4 -25 -14 -31 -14 -41 -2 -13 16 -35 18 -44 4z"/>
<path d="M1420 670 c0 -5 15 -39 32 -75 l33 -66 -20 -37 c-12 -23 -29 -38 -42
-40 -25 -4 -32 -22 -9 -22 34 0 50 19 102 121 30 60 54 113 54 119 0 26 -18 5
-42 -51 -15 -33 -31 -58 -37 -55 -5 3 -19 31 -32 61 -20 50 -39 71 -39 45z"/>
<path d="M1616 661 c-25 -27 -10 -48 45 -66 64 -22 65 -48 1 -53 -37 -3 -42
-1 -42 17 0 12 -4 21 -10 21 -16 0 -11 -47 6 -54 29 -11 83 -6 98 10 32 32 16
60 -45 77 -56 16 -59 41 -6 45 28 2 37 -1 37 -12 0 -22 19 -30 27 -10 15 40
-78 61 -111 25z"/>
<path d="M1786 664 c-9 -8 -16 -19 -16 -24 0 -16 30 -38 59 -45 33 -7 56 -29
46 -45 -3 -5 -24 -10 -46 -10 -32 0 -39 3 -39 20 0 11 -4 20 -10 20 -16 0 -11
-47 6 -54 29 -11 83 -6 98 10 32 31 17 55 -50 76 -50 17 -52 42 -3 46 30 3 38
-1 44 -20 l8 -23 4 24 c3 13 -1 27 -9 32 -22 14 -75 10 -92 -7z"/>
</g>
</svg>
