<svg xmlns="http://www.w3.org/2000/svg" viewBox="0 0 179.839 114"><defs><style>.cls-1{fill:#fff;}</style></defs><g id="Ebene_2" data-name="Ebene 2"><g id="Ebene_1-2" data-name="Ebene 1"><path class="cls-1" d="M54.424,1.6c-2.4,2.3-2.4,46.5,0,48.8,1.2,1.3,4.1,1.6,15.5,1.6h13.9v5c0,4.7-.2,5-2.5,5-1.4,0-2.5.4-2.5,1s4.5,1,11.5,1,11.5-.4,11.5-1-1.1-1-2.5-1c-2.3,0-2.5-.3-2.5-5V52h13.9c13.3,0,14.1-.1,15.5-2.2,2.3-3.3,2.3-44.3,0-47.6l-1.5-2.2h-34.4C60.424,0,55.724.2,54.424,1.6Zm70.9,24.4V49.5h-70l-.3-22.5c-.1-12.3,0-23,.3-23.7.3-1.1,7.6-1.3,35.2-1.1l34.8.3Zm-29.5,31v5h-11V52h11Z"/><path class="cls-1" d="M89.824,24.9c-2.8,7.2-5,13.6-4.8,14.2s2.8-5,5.8-12.5c2.9-7.5,5.1-13.8,4.8-14.1S92.724,17.8,89.824,24.9Z"/><path class="cls-1" d="M69.124,21.3c-4,2.3-7.3,4.4-7.3,4.8,0,.8,16.1,9.2,16.6,8.6.3-.3-2.6-2.2-6.5-4.4-3.9-2.1-7.1-4-7.1-4.3s3.2-2.2,7-4.3c3.9-2.1,7-4,7-4.3C78.824,16.3,75.724,17.5,69.124,21.3Z"/><path class="cls-1" d="M101.824,17.4c0,.3,3.1,2.2,7,4.3,3.8,2.1,7,4,7,4.3s-3.2,2.2-7.1,4.3-6.9,4.1-6.6,4.4c.6.5,16.7-7.8,16.7-8.7,0-.6-15.4-9-16.4-9C102.124,17,101.824,17.2,101.824,17.4Z"/><path class="cls-1" d="M30.824,75c0,.5.9,1,2,1,1.9,0,2,.7,2,13.9,0,11.7.2,14,1.6,14.5,2.3.9,3.4.7,3.4-.4,0-.6-.7-1-1.5-1-1.3,0-1.5-2.3-1.5-14.5V74h-3C32.224,74,30.824,74.4,30.824,75Z"/><path class="cls-1" d="M110.124,81.2a26.749,26.749,0,0,0,2,5.8c1.4,3.2,1.3,3.9-.6,8.8-1.1,2.9-2.4,4.9-2.8,4.5a85.078,85.078,0,0,1-4.7-10.3c-2.2-5.2-4.5-9.6-5.2-9.8-.7-.3-1.1,0-.9.5,3.2,8.2,10.5,24.3,11,24.3.3,0,1.8-2.6,3.2-5.8l2.5-5.7,2.6,5.7c1.4,3.2,2.8,5.8,3.1,5.8.4,0,1.7-2.4,2.9-5.3,6.5-14.5,8.4-19.7,7.7-20.2-.5-.3-2.8,4.1-5.1,9.8-2.4,5.6-4.6,10.6-5,11-.4.5-1.7-1.6-2.9-4.6l-2.2-5.3,2.1-4.8c2.3-5.5,2.3-5.6,1.1-5.6-.5,0-1.5,1.6-2.2,3.5s-1.6,3.5-2,3.5-1.4-1.8-2.3-4C110.724,78.7,109.324,77.6,110.124,81.2Z"/><path class="cls-1" d="M2.124,81.4c1.5,1.1,1.7,3.1,1.7,14.4,0,12.3-.1,13.2-2.2,14.6-3,2.1-1.5,3.3,1.7,1.2,2.5-1.6,2.5-1.8,2.5-15.6,0-11.5.3-14,1.4-14a2.817,2.817,0,0,0,2.1-1c.4-.6-1.2-1-4.2-1C.924,80.1.524,80.2,2.124,81.4Z"/><path class="cls-1" d="M44.824,82a1.075,1.075,0,0,0,1,1,1,1,0,0,0,1-1,.945.945,0,0,0-1-1A1,1,0,0,0,44.824,82Z"/><path class="cls-1" d="M11.424,89.9c-.3.5.3,1.1,1.4,1.4,1.7.4,2,1.4,2,5.9,0,3,.5,5.9,1.2,6.6,1.6,1.6,5,1.5,7.3-.2,1.6-1.1,2.1-1.1,3.3,0,1.6,1.6,4.2,1.9,4.2.4,0-.6-.7-1-1.5-1-1.2,0-1.5-1.4-1.5-6.4,0-3.6-.4-6.8-1-7.1-.6-.4-1,1.2-1,4.2,0,6.1-2.1,9.3-6.1,9.3-2.9,0-2.9-.1-2.9-5.4,0-3.6-.5-6-1.6-7C13.524,88.8,12.224,88.6,11.424,89.9Z"/><path class="cls-1" d="M41.324,89.9c-.3.7.2,1.1,1.4,1.1,1.9,0,2.1.6,2.1,7,0,4.2.4,7,1,7,.7,0,1-2.9.8-7.8-.3-7-.5-7.7-2.5-8A3.378,3.378,0,0,0,41.324,89.9Z"/><path class="cls-1" d="M54.424,91.1c-2,1.6-2.6,2.9-2.6,5.8,0,7,7.1,10.5,12.1,6,2.1-1.8,2.1-2,.4-1.3-6.4,2.3-10.5,1.2-10.5-2.7,0-1.7.8-1.9,6-1.9,5.3,0,6-.2,6-2,0-2.7-3.5-6-6.4-6A9.647,9.647,0,0,0,54.424,91.1Zm8.2,1.1c2.6,2.6,1.3,3.8-3.8,3.8-5.4,0-5.5-.1-4-3.1C56.024,90.7,60.724,90.3,62.624,92.2Z"/><path class="cls-1" d="M68.324,90c-.3.5.3,1,1.4,1,1.9,0,2.1.6,2.1,7,0,4,.4,7,1,7s1-2.4,1-5.3c0-6.1,2.2-9.1,6.2-8.5,2.1.3,2.3.9,2.6,6.5.2,5.2.6,6.3,2.3,6.8a3.415,3.415,0,0,0,3.2-.4c.8-.8.5-1.1-1.1-1.1-2,0-2.2-.5-2.2-6s-.2-6.1-2.6-7.2c-2.1-1-3.1-.9-5.4.4-2.5,1.4-3.1,1.4-4.1.2C71.424,88.8,69.224,88.6,68.324,90Z"/><path class="cls-1" d="M131.824,90a57.252,57.252,0,0,0,3.2,7.5l3.3,6.6-2,3.7c-1.2,2.3-2.9,3.8-4.2,4-2.5.4-3.2,2.2-.9,2.2,3.4,0,5-1.9,10.2-12.1,3-6,5.4-11.3,5.4-11.9,0-2.6-1.8-.5-4.2,5.1-1.5,3.3-3.1,5.8-3.7,5.5-.5-.3-1.9-3.1-3.2-6.1C133.724,89.5,131.824,87.4,131.824,90Z"/><path class="cls-1" d="M151.424,90.9c-2.5,2.7-1,4.8,4.5,6.6,6.4,2.2,6.5,4.8.1,5.3-3.7.3-4.2.1-4.2-1.7,0-1.2-.4-2.1-1-2.1-1.6,0-1.1,4.7.6,5.4,2.9,1.1,8.3.6,9.8-1,3.2-3.2,1.6-6-4.5-7.7-5.6-1.6-5.9-4.1-.6-4.5,2.8-.2,3.7.1,3.7,1.2,0,2.2,1.9,3,2.7,1C164.024,89.4,154.724,87.3,151.424,90.9Z"/><path class="cls-1" d="M168.424,90.6a4.7,4.7,0,0,0-1.6,2.4c0,1.6,3,3.8,5.9,4.5,3.3.7,5.6,2.9,4.6,4.5-.3.5-2.4,1-4.6,1-3.2,0-3.9-.3-3.9-2,0-1.1-.4-2-1-2-1.6,0-1.1,4.7.6,5.4,2.9,1.1,8.3.6,9.8-1,3.2-3.1,1.7-5.5-5-7.6-5-1.7-5.2-4.2-.3-4.6,3-.3,3.8.1,4.4,2l.8,2.3.4-2.4a3.1,3.1,0,0,0-.9-3.2C175.424,88.5,170.124,88.9,168.424,90.6Z"/></g></g></svg>